<?xml version="1.0" encoding="utf-8"?>
<!-- Generator: Adobe Illustrator 26.0.1, SVG Export Plug-In . SVG Version: 6.00 Build 0)  -->
<svg version="1.1" id="Layer_1" xmlns="http://www.w3.org/2000/svg" xmlns:xlink="http://www.w3.org/1999/xlink" x="0px" y="0px"
	 viewBox="0 0 595.276 841.89" enable-background="new 0 0 595.276 841.89" xml:space="preserve">
<g>
	<path fill="#4A9FDA" d="M208.474,630.726c0-0.079,0.079-0.5,0.395-0.526l1.159-0.264l-0.026-14.222l-1.08-0.289
		c-0.395-0.105-0.448-0.501-0.448-0.633v-0.315h13.194v2.87c0,0.185-0.157,0.422-0.395,0.422l-0.185-0.026l-1.237-1.765h-7.032
		v6.294h5.794l0.343-1.158c0.078-0.211,0.236-0.369,0.474-0.369h0.316v4.504h-0.316c-0.185-0.026-0.316-0.105-0.343-0.185
		c-0.079-0.079-0.104-0.158-0.131-0.237l-0.343-1.105h-5.794v6.215l1.264,0.237c0.185,0.026,0.527,0.316,0.527,0.553l-0.026,0.316
		h-6.11V630.726z"/>
	<path fill="#4A9FDA" d="M234.467,614.213c5.952,0,9.271,3.055,9.271,8.586c0,5.504-3.397,8.48-9.271,8.48s-9.271-2.977-9.271-8.48
		C225.197,617.294,228.515,614.213,234.467,614.213z M240.735,623.747c0-4.109-1.369-8.322-6.373-8.322
		c-4.188,0-6.137,2.712-6.137,6.426c0,4.135,1.423,8.217,6.4,8.217C238.708,630.068,240.735,627.434,240.735,623.747z"/>
	<path fill="#4A9FDA" d="M246.686,615.214c-0.105-0.026-0.396-0.105-0.422-0.396l-0.053-0.342h5.979l-0.026,0.315
		c0,0.264-0.158,0.369-0.368,0.422l-1.186,0.289v9.14c0,3.134,1.554,5.188,5.03,5.188c3.213,0,5.215-1.396,5.215-4.424v-9.903
		l-1.554-0.289c-0.343-0.053-0.316-0.422-0.316-0.475l0.026-0.263h4.872v0.315c0,0.132-0.053,0.343-0.342,0.422l-1.186,0.289v9.561
		c0,4.267-2.95,6.216-7.269,6.216c-4.319,0-7.27-1.923-7.27-6.216v-9.561L246.686,615.214z"/>
	<path fill="#4A9FDA" d="M266.542,630.726c0-0.157,0.079-0.421,0.368-0.474l1.186-0.264v-14.512l-1.027-0.184
		c-0.105,0-0.236-0.105-0.342-0.211c-0.026-0.079-0.079-0.158-0.079-0.237l-0.053-0.368h2.844l11.746,11.982V615.45l-1.448-0.21
		c-0.132,0-0.447-0.158-0.447-0.422v-0.026l0.026-0.315h4.767v0.315c0,0.211-0.211,0.448-0.447,0.475l-0.922,0.184v15.724h-1.027
		l-12.089-12.984v11.772l1.501,0.264c0.343,0.053,0.396,0.421,0.396,0.5v0.316h-4.951V630.726z"/>
	<path fill="#4A9FDA" d="M287.504,630.673c0-0.078,0.132-0.474,0.447-0.526l1.106-0.316l-0.053-14.248l-1.106-0.21
		c-0.131-0.026-0.21-0.105-0.236-0.158c-0.053-0.053-0.079-0.105-0.105-0.132c-0.026-0.105-0.053-0.211-0.053-0.29v-0.315h7.085
		c5.503,0,10.244,1.527,10.244,7.559c0,6.005-3.424,9.007-9.823,9.007h-7.559L287.504,630.673z M294.984,629.541
		c4.688,0,6.9-2.266,6.9-6.584c0-4.82-2.528-6.979-7.716-6.979h-2.317v13.563H294.984z"/>
	<path fill="#4A9FDA" d="M307.044,630.726c0-0.053,0-0.131,0.026-0.184c0.053-0.185,0.211-0.29,0.29-0.29l1.291-0.237l7.005-15.67
		H317l7.269,15.775l1.001,0.158c0.105,0.026,0.237,0.105,0.289,0.264c0.026,0.053,0.026,0.131,0.026,0.184v0.316h-5.873v-0.316
		c0-0.026,0-0.105,0.026-0.184c0.026-0.079,0.105-0.237,0.29-0.264l1.054-0.211l-1.844-4.529l-7.189,0.025l-1.844,4.478l0.975,0.185
		c0.184,0.026,0.263,0.185,0.289,0.237c0.026,0.079,0.053,0.157,0.053,0.263l-0.026,0.316h-4.451V630.726z M318.606,624.089
		l-3.003-6.32l-2.923,6.32H318.606z"/>
	<path fill="#4A9FDA" d="M332.3,630.989c-0.105-0.079-0.158-0.185-0.158-0.29c0-0.21,0.237-0.447,0.447-0.474l1.502-0.211v-14.063
		h-4.873c-0.21,0.211-0.395,0.421-0.579,0.658c-0.185,0.29-0.395,0.605-0.605,0.869c-0.053,0.105-0.185,0.185-0.316,0.185
		c-0.211,0-0.421-0.185-0.421-0.396v-2.791h16.407v2.844l-0.079,0.105c-0.053,0.053-0.158,0.132-0.289,0.132
		c-0.053,0-0.185-0.026-0.343-0.158c-0.026-0.053-0.105-0.132-0.132-0.185c-0.132-0.131-0.289-0.342-0.447-0.526
		c-0.237-0.316-0.448-0.579-0.58-0.737h-4.898v14.063l1.501,0.237c0.158,0.026,0.369,0.237,0.369,0.447v0.343h-6.426L332.3,630.989z
		"/>
	<path fill="#4A9FDA" d="M346.625,630.726c0-0.157,0.105-0.447,0.395-0.5l1.159-0.211v-14.512l-1.08-0.21
		c-0.263-0.026-0.474-0.264-0.474-0.501v-0.315h5.899v0.315c0,0.105-0.079,0.448-0.422,0.501l-1.105,0.21v14.512l1.105,0.211
		c0.237,0.053,0.422,0.264,0.422,0.5v0.316h-5.899V630.726z"/>
	<path fill="#4A9FDA" d="M365.402,614.213c5.952,0,9.271,3.055,9.271,8.586c0,5.504-3.397,8.48-9.271,8.48s-9.271-2.977-9.271-8.48
		C356.132,617.294,359.45,614.213,365.402,614.213z M371.67,623.747c0-4.109-1.369-8.322-6.373-8.322
		c-4.188,0-6.137,2.712-6.137,6.426c0,4.135,1.423,8.217,6.4,8.217C369.643,630.068,371.67,627.434,371.67,623.747z"/>
	<path fill="#4A9FDA" d="M378.227,630.726c0-0.157,0.079-0.421,0.368-0.474l1.186-0.264v-14.512l-1.027-0.184
		c-0.105,0-0.237-0.105-0.342-0.211c-0.026-0.079-0.079-0.158-0.079-0.237l-0.053-0.368h2.844l11.746,11.982V615.45l-1.448-0.21
		c-0.132,0-0.447-0.158-0.447-0.422v-0.026l0.026-0.315h4.767v0.315c0,0.211-0.211,0.448-0.447,0.475l-0.922,0.184v15.724h-1.027
		l-12.089-12.984v11.772l1.501,0.264c0.343,0.053,0.396,0.421,0.396,0.5v0.316h-4.951V630.726z"/>
</g>
<g>
	<path fill="#4A9FDA" d="M232.903,591.21c-0.289-0.096-0.626-0.192-0.915-0.337c-0.386-0.192-0.818-0.53-1.06-1.012l-0.386-0.819
		h7.708V599.4l-0.145,0.145c-2.938,2.746-9.153,3.131-12.766,3.131c-10.213,0-16.909-4.769-16.909-14.692
		c0-10.742,6.6-16.522,18.065-16.522c1.156,0,3.275,0.048,5.395,0.192c2.12,0.192,4.336,0.53,5.396,1.301l0.241,0.145l0.24,6.262
		l-0.963-0.529c0-0.048-0.097-0.097-0.241-0.145c-0.192-0.145-0.337-0.289-0.385-0.289c-0.193-0.241-0.434-0.771-0.723-1.204
		c-0.241-0.434-0.53-0.916-0.723-1.205c-1.204-1.686-2.265-2.022-4.528-2.216c-1.253-0.145-2.457-0.145-3.709-0.145l-0.434-0.048
		c-8.431,0-12.236,5.443-12.236,12.91c0,7.659,3.469,13.729,12.332,13.729c2.217,0,4.528-0.338,6.648-1.012L232.903,591.21z"/>
	<path fill="#4A9FDA" d="M246.052,601.663c0-0.337,0.289-0.867,0.771-0.963l2.071-0.434l-0.096-26.302l-1.976-0.482
		c-0.529-0.096-0.771-0.674-0.771-0.963v-0.578h10.79v0.578c0,0.289-0.337,0.915-0.818,1.012L254,573.965V586.2h16.619
		l-0.096-12.235l-1.782-0.482c-0.386-0.096-0.867-0.481-0.867-0.963v-0.578h10.742v0.578c0,0.386-0.386,0.867-0.819,0.963
		l-1.782,0.482v26.302l1.879,0.434c0.578,0.048,0.723,0.818,0.723,0.963v0.578h-10.742v-0.578c0-0.529,0.578-0.963,0.915-0.963
		l1.734-0.434l0.096-11.417H254v11.417l1.976,0.434c0.385,0.048,0.866,0.481,0.866,0.963v0.578h-10.79V601.663z"/>
	<path fill="#4A9FDA" d="M285.07,601.663c0-0.289,0.192-0.818,0.723-0.915l2.119-0.385V573.82l-1.975-0.386
		c-0.482-0.048-0.867-0.481-0.867-0.915v-0.578h10.79v0.578c0,0.192-0.145,0.818-0.771,0.915l-2.023,0.386v26.543l2.023,0.385
		c0.434,0.097,0.771,0.481,0.771,0.915v0.578h-10.79V601.663z"/>
	<path fill="#4A9FDA" d="M302.556,601.663c0-0.289,0.145-0.771,0.674-0.867l2.168-0.481v-26.543l-1.879-0.337
		c-0.192,0-0.434-0.192-0.626-0.386c-0.048-0.144-0.145-0.288-0.145-0.433l-0.097-0.675h5.203l21.484,21.918v-20.136l-2.649-0.386
		c-0.241,0-0.819-0.289-0.819-0.771v-0.048l0.049-0.578h8.719v0.578c0,0.386-0.385,0.818-0.818,0.867l-1.687,0.337v28.759h-1.879
		l-22.11-23.749v21.533l2.745,0.481c0.627,0.097,0.723,0.771,0.723,0.915v0.578h-9.056V601.663z"/>
	<path fill="#4A9FDA" d="M340.85,601.663c0-0.337,0.386-0.963,0.867-1.06l1.975-0.529v-26.014l-1.975-0.385
		c-0.434-0.097-0.915-0.771-0.915-1.06c0-0.049,0.048-0.145,0.048-0.241l0.145-0.434h24.423v5.636c0,0.145-0.096,0.627-0.626,0.627
		c-0.337,0-0.675-0.338-0.818-0.482l-1.879-3.034h-13.296V586.2h10.646l0.529-2.071c0.097-0.386,0.482-0.723,0.915-0.723h0.578
		v8.237h-0.578c-0.529-0.048-0.818-0.481-0.915-0.771l-0.529-2.023h-10.646v10.646h14.5c0.241-0.386,0.626-1.012,1.012-1.639
		c0.24-0.433,0.529-0.866,0.771-1.155c0.097-0.145,0.192-0.289,0.289-0.434c0.145-0.145,0.289-0.289,0.337-0.338l0.916-0.578v6.889
		H340.85V601.663z"/>
	<path fill="#4A9FDA" d="M372.834,595.353l0.627-0.048c0.385,0,0.674,0.192,0.867,0.434c0.096,0.097,0.145,0.192,0.192,0.289
		c0.048,0.048,0.096,0.145,0.096,0.241c0.145,0.289,0.241,0.529,0.386,0.771c0.097,0.241,0.241,0.481,0.434,0.723
		c1.687,2.264,5.396,2.794,8.526,2.794c3.854,0,5.588-2.554,5.588-6.07c0-1.541-1.012-2.601-2.505-3.42
		c-0.723-0.385-1.59-0.723-2.457-1.06c-0.818-0.289-1.686-0.53-2.408-0.771c-5.106-1.59-8.382-3.469-8.382-9.104
		c0-6.118,4.528-8.671,10.501-8.671c2.072,0,6.263,0.145,8.286,1.252l0.289,0.145l0.24,4.77l-0.433,0.145
		c-0.386,0.145-0.723-0.145-0.867-0.241s-0.241-0.289-0.289-0.337c-0.193-0.289-0.338-0.627-0.53-0.916
		c-0.145-0.289-0.289-0.577-0.53-0.866c-0.771-1.012-1.686-1.494-2.697-1.687c-0.578-0.145-1.156-0.145-1.782-0.192
		c-0.626,0-1.349,0.048-1.976,0.048c-3.275,0-5.01,1.879-5.01,4.914c0,2.022,0.916,3.228,2.216,4.143
		c0.675,0.385,1.494,0.771,2.409,1.107c0.867,0.386,1.83,0.675,2.842,1.012c3.902,1.253,8.189,2.843,8.189,8.575
		c0,6.311-4.239,9.345-10.694,9.345c-3.228,0-7.37-0.24-10.405-1.349l-0.385-0.145L372.834,595.353z"/>
</g>
<g>
	<path fill="#4A9FDA" d="M202.207,409.556c63.64,0.384,127.28,0.768,190.919,1.152c-3.936,7.199-7.871,14.398-11.806,21.597
		c-55.769,0.288-111.538,0.576-167.306,0.864C210.078,425.298,206.143,417.427,202.207,409.556z"/>
	<polygon fill="#4A9FDA" points="289.028,551.666 271.75,551.666 271.75,446.704 323.583,446.704 323.583,552.53 306.738,552.53 
		306.738,459.23 288.164,459.23 	"/>
	<path fill="#4A9FDA" d="M227.26,447.568h28.94v98.483c-12.806-3.306-52.107-15.195-82.213-53.561
		c-34.116-43.475-32.917-90.993-32.252-103.091c0.825-14.437,4.626-46.456,26.493-78.902c18.657-27.685,41.667-42.623,54.137-49.53
		c0,4.607,0,9.215,0,13.822c-48.162,31.116-74.505,85.999-67.383,140.526c9.013,69.009,67.11,102.846,73.718,106.546
		C228.22,497.097,227.74,472.332,227.26,447.568z"/>
	<path fill="#4A9FDA" d="M368.016,447.568h-28.94v98.483c12.806-3.306,52.107-15.195,82.213-53.561
		c34.116-43.475,32.917-90.993,32.252-103.091c-0.825-14.437-4.626-46.456-26.493-78.902c-18.658-27.685-41.667-42.623-54.137-49.53
		c0,4.607,0,9.215,0,13.822c48.162,31.116,74.505,85.999,67.383,140.526c-9.013,69.009-67.11,102.846-73.718,106.546
		C367.056,497.097,367.536,472.332,368.016,447.568z"/>
	<path fill="#F6951D" d="M255.53,398.718c1.983-3.869,2.821-8.317,2.381-12.643c0.105,1.316,2.133,1.627,3.089,0.716
		c0.956-0.911,1.093-2.363,1.17-3.682c0.418-7.12,0.837-14.239,1.255-21.359c8.103,4.609,13.625,13.464,14.2,22.768
		c1.698-12.842,0.755-26.027-2.751-38.497c1.602,2.446,4.027,6.313,6.667,11.27c3.825,7.183,5.64,12.031,7.423,11.763
		c1.259-0.189,1.85-2.829,2.127-4.253c2.149-11.074,1.585-32.868,1.276-41.684c3.79,3.654,10.662,11.253,14.787,23.069
		c4.351,12.463,3.415,23.23,2.609,28.473c4.386-10.682,7.519-15.812,9.4-15.388c2.732,0.616,2.823,12.948,0.27,36.999
		c0.62-1.129,1.238-2.261,1.856-3.397c2.41-4.428,4.77-8.84,7.083-13.234c1.298,6.453,2.595,12.907,3.893,19.36
		c7.255-5.562,12.403-11.007,15.82-15.058c11.595-13.749,16.98-27.727,21.267-39.132c2.412-6.416,4.049-11.886,5.104-15.738
		c-3.337,2.126-6.673,4.252-10.01,6.377c1.893-5.434,5.231-17.513,1.701-31.91c-1.813-7.394-4.876-13.11-7.428-17.002
		c0.531,12.436-2.161,20.658-4.383,25.492c-1.047,2.278-3.105,6.705-5.203,6.421c-2.799-0.378-3.571-4.012-3.661-6.835
		c-0.488-15.368-0.856-30.15-1.209-40.884c-0.225-6.835-1.816-16.788-8.512-28.856c-1.734,6.716-1.948,12.164-1.812,15.936
		c0.232,6.429,1.03,9.113,0.046,13.745c-0.956,4.498-4.174,8.932-8.732,9.544c4.92-0.679-0.532-37.728-1.84-41.061
		c-2.505-6.386-6.527-12.037-10.084-17.903c-10.333-17.043-15.572-35.367-19.168-54.784c-12.11,29.555-7.19,60.389-5.579,91.191
		c0.116,2.208,0.147,4.633-1.229,6.363c-0.931,1.171-2.295,2.082-3.591,2.305c-4.675,0.802-9.484-6.867-10.397-8.323
		c-6.05-9.649-1.819-13.817-7.089-26.088c-3.204-7.46-8.939-15.631-9.461-15.358c-0.033,0.017-0.04,0.067-0.042,0.085
		c-3.163,26.246,1.298,46.722,1.298,46.722c1.924,8.83,4.133,21.166,5.369,36.605c-1.475-6.098-4.263-14.96-9.888-24.493
		c-7.956-13.485-19.426-24.648-22.012-23.003c-3.026,1.924,11.296,18.08,5.246,33.319c-2.842,7.159-8.931,10.966-8.649,19.849
		c0.145,4.57,1.924,8.847,0.851,9.358c-1.458,0.694-5.087-7.038-7.656-6.38c-3.212,0.823-2.44,14.163-2.127,19.566
		c0.383,6.608,0.874,15.097,3.283,23.604C229.569,377.677,251.039,395.169,255.53,398.718z"/>
</g>
</svg>
