<svg xmlns="http://www.w3.org/2000/svg" xmlns:xlink="http://www.w3.org/1999/xlink" width="500" zoomAndPan="magnify" viewBox="0 0 375 374.999991" height="500" preserveAspectRatio="xMidYMid meet" version="1.2"><defs><clipPath id="4d41db656b"><rect x="0" width="143" y="0" height="54"/></clipPath><clipPath id="781118fb26"><path d="M 188.460938 156 L 215.460938 156 L 215.460938 175 L 188.460938 175 Z M 188.460938 156 "/></clipPath><clipPath id="5a7c36e2df"><rect x="0" width="106" y="0" height="11"/></clipPath></defs><g id="7ed1347b1d"><g transform="matrix(1,0,0,1,131,161)"><g clip-path="url(#4d41db656b)"><g style="fill:#322f30;fill-opacity:0.4;"><g transform="translate(0.878564, 38.631154)"><path style="stroke:none" d="M 34.390625 -19.71875 L 34.390625 -12.078125 C 33.484375 -7.890625 31.492188 -4.722656 28.421875 -2.578125 C 25.347656 -0.429688 21.921875 0.640625 18.140625 0.640625 C 13.390625 0.640625 9.34375 -1.132812 6 -4.6875 C 2.65625 -8.25 0.984375 -12.546875 0.984375 -17.578125 C 0.984375 -22.703125 2.617188 -27.023438 5.890625 -30.546875 C 9.160156 -34.078125 13.242188 -35.84375 18.140625 -35.84375 C 23.859375 -35.84375 28.378906 -33.835938 31.703125 -29.828125 L 26.453125 -24.0625 C 24.578125 -27.082031 21.960938 -28.59375 18.609375 -28.59375 C 16.128906 -28.59375 14.015625 -27.515625 12.265625 -25.359375 C 10.515625 -23.210938 9.640625 -20.617188 9.640625 -17.578125 C 9.640625 -14.585938 10.515625 -12.03125 12.265625 -9.90625 C 14.015625 -7.789062 16.128906 -6.734375 18.609375 -6.734375 C 20.648438 -6.734375 22.429688 -7.351562 23.953125 -8.59375 C 25.484375 -9.832031 26.25 -11.476562 26.25 -13.53125 L 18.140625 -13.53125 L 18.140625 -19.71875 Z M 34.390625 -19.71875 "/></g></g><g style="fill:#322f30;fill-opacity:0.4;"><g transform="translate(34.333062, 38.631154)"><path style="stroke:none" d="M 2.5625 0 L 2.5625 -36.703125 L 10.109375 -36.703125 L 10.109375 -19.59375 L 10.203125 -19.59375 C 12.160156 -21.550781 14.25 -22.53125 16.46875 -22.53125 C 17.550781 -22.53125 18.625 -22.382812 19.6875 -22.09375 C 20.757812 -21.8125 21.785156 -21.375 22.765625 -20.78125 C 23.742188 -20.1875 24.539062 -19.335938 25.15625 -18.234375 C 25.769531 -17.140625 26.078125 -15.867188 26.078125 -14.421875 L 26.078125 0 L 18.515625 0 L 18.515625 -12.375 C 18.515625 -13.507812 18.148438 -14.503906 17.421875 -15.359375 C 16.703125 -16.210938 15.757812 -16.640625 14.59375 -16.640625 C 13.457031 -16.640625 12.425781 -16.195312 11.5 -15.3125 C 10.570312 -14.4375 10.109375 -13.457031 10.109375 -12.375 L 10.109375 0 Z M 2.5625 0 "/></g></g><g style="fill:#322f30;fill-opacity:0.4;"><g transform="translate(60.618704, 38.631154)"><path style="stroke:none" d="M 3.28125 -34.09375 C 4.164062 -34.976562 5.21875 -35.421875 6.4375 -35.421875 C 7.664062 -35.421875 8.71875 -34.976562 9.59375 -34.09375 C 10.476562 -33.207031 10.921875 -32.15625 10.921875 -30.9375 C 10.921875 -29.71875 10.476562 -28.664062 9.59375 -27.78125 C 8.71875 -26.894531 7.664062 -26.453125 6.4375 -26.453125 C 5.21875 -26.453125 4.164062 -26.894531 3.28125 -27.78125 C 2.40625 -28.664062 1.96875 -29.71875 1.96875 -30.9375 C 1.96875 -32.15625 2.40625 -33.207031 3.28125 -34.09375 Z M 2.5625 -21.890625 L 2.5625 0 L 10.109375 0 L 10.109375 -21.890625 Z M 2.5625 -21.890625 "/></g></g><g style="fill:#322f30;fill-opacity:0.4;"><g transform="translate(71.585184, 38.631154)"><path style="stroke:none" d="M 2.5625 0 L 2.5625 -21.890625 L 10.109375 -21.890625 L 10.109375 -19.59375 L 10.203125 -19.59375 C 12.160156 -21.550781 14.25 -22.53125 16.46875 -22.53125 C 17.550781 -22.53125 18.625 -22.382812 19.6875 -22.09375 C 20.757812 -21.8125 21.785156 -21.375 22.765625 -20.78125 C 23.742188 -20.1875 24.539062 -19.335938 25.15625 -18.234375 C 25.769531 -17.140625 26.078125 -15.867188 26.078125 -14.421875 L 26.078125 0 L 18.515625 0 L 18.515625 -12.375 C 18.515625 -13.507812 18.148438 -14.503906 17.421875 -15.359375 C 16.703125 -16.210938 15.757812 -16.640625 14.59375 -16.640625 C 13.457031 -16.640625 12.425781 -16.195312 11.5 -15.3125 C 10.570312 -14.4375 10.109375 -13.457031 10.109375 -12.375 L 10.109375 0 Z M 2.5625 0 "/></g></g><g style="fill:#322f30;fill-opacity:0.4;"><g transform="translate(97.870826, 38.631154)"><path style="stroke:none" d="M 24.703125 -9.90625 L 8.828125 -9.90625 C 8.828125 -8.363281 9.320312 -7.222656 10.3125 -6.484375 C 11.3125 -5.742188 12.394531 -5.375 13.5625 -5.375 C 14.789062 -5.375 15.757812 -5.535156 16.46875 -5.859375 C 17.175781 -6.191406 17.988281 -6.84375 18.90625 -7.8125 L 24.359375 -5.078125 C 22.085938 -1.265625 18.304688 0.640625 13.015625 0.640625 C 9.710938 0.640625 6.878906 -0.488281 4.515625 -2.75 C 2.160156 -5.007812 0.984375 -7.734375 0.984375 -10.921875 C 0.984375 -14.109375 2.160156 -16.835938 4.515625 -19.109375 C 6.878906 -21.390625 9.710938 -22.53125 13.015625 -22.53125 C 16.484375 -22.53125 19.304688 -21.523438 21.484375 -19.515625 C 23.660156 -17.515625 24.75 -14.648438 24.75 -10.921875 C 24.75 -10.410156 24.734375 -10.070312 24.703125 -9.90625 Z M 9.046875 -14.078125 L 17.375 -14.078125 C 17.195312 -15.210938 16.742188 -16.085938 16.015625 -16.703125 C 15.296875 -17.316406 14.367188 -17.625 13.234375 -17.625 C 11.972656 -17.625 10.972656 -17.296875 10.234375 -16.640625 C 9.492188 -15.984375 9.097656 -15.128906 9.046875 -14.078125 Z M 9.046875 -14.078125 "/></g></g><g style="fill:#322f30;fill-opacity:0.4;"><g transform="translate(121.681508, 38.631154)"><path style="stroke:none" d="M 12.078125 -22.53125 C 13.328125 -22.53125 14.5625 -22.382812 15.78125 -22.09375 C 17.007812 -21.8125 17.921875 -21.53125 18.515625 -21.25 L 19.421875 -20.828125 L 16.9375 -15.875 C 15.226562 -16.78125 13.609375 -17.234375 12.078125 -17.234375 C 11.222656 -17.234375 10.617188 -17.140625 10.265625 -16.953125 C 9.910156 -16.773438 9.734375 -16.429688 9.734375 -15.921875 C 9.734375 -15.804688 9.742188 -15.691406 9.765625 -15.578125 C 9.796875 -15.460938 9.851562 -15.351562 9.9375 -15.25 C 10.03125 -15.15625 10.109375 -15.070312 10.171875 -15 C 10.242188 -14.925781 10.363281 -14.847656 10.53125 -14.765625 C 10.707031 -14.679688 10.84375 -14.617188 10.9375 -14.578125 C 11.039062 -14.535156 11.207031 -14.46875 11.4375 -14.375 C 11.664062 -14.289062 11.835938 -14.226562 11.953125 -14.1875 C 12.066406 -14.144531 12.253906 -14.082031 12.515625 -14 C 12.785156 -13.914062 12.992188 -13.859375 13.140625 -13.828125 C 14.023438 -13.566406 14.789062 -13.28125 15.4375 -12.96875 C 16.09375 -12.65625 16.785156 -12.226562 17.515625 -11.6875 C 18.242188 -11.144531 18.804688 -10.460938 19.203125 -9.640625 C 19.597656 -8.816406 19.796875 -7.878906 19.796875 -6.828125 C 19.796875 -1.847656 16.34375 0.640625 9.4375 0.640625 C 7.863281 0.640625 6.375 0.398438 4.96875 -0.078125 C 3.5625 -0.566406 2.546875 -1.050781 1.921875 -1.53125 L 0.984375 -2.296875 L 4.046875 -7.46875 C 4.273438 -7.269531 4.570312 -7.035156 4.9375 -6.765625 C 5.3125 -6.492188 5.984375 -6.125 6.953125 -5.65625 C 7.921875 -5.1875 8.757812 -4.953125 9.46875 -4.953125 C 11.03125 -4.953125 11.8125 -5.476562 11.8125 -6.53125 C 11.8125 -7.007812 11.613281 -7.382812 11.21875 -7.65625 C 10.820312 -7.925781 10.144531 -8.234375 9.1875 -8.578125 C 8.238281 -8.921875 7.492188 -9.234375 6.953125 -9.515625 C 5.585938 -10.222656 4.503906 -11.023438 3.703125 -11.921875 C 2.910156 -12.816406 2.515625 -14.003906 2.515625 -15.484375 C 2.515625 -17.703125 3.375 -19.429688 5.09375 -20.671875 C 6.820312 -21.910156 9.148438 -22.53125 12.078125 -22.53125 Z M 12.078125 -22.53125 "/></g></g><g style="fill:#0cc0df;fill-opacity:1;"><g transform="translate(0.878564, 38.631154)"><path style="stroke:none" d="M 34.390625 -19.71875 L 34.390625 -12.078125 C 33.484375 -7.890625 31.492188 -4.722656 28.421875 -2.578125 C 25.347656 -0.429688 21.921875 0.640625 18.140625 0.640625 C 13.390625 0.640625 9.34375 -1.132812 6 -4.6875 C 2.65625 -8.25 0.984375 -12.546875 0.984375 -17.578125 C 0.984375 -22.703125 2.617188 -27.023438 5.890625 -30.546875 C 9.160156 -34.078125 13.242188 -35.84375 18.140625 -35.84375 C 23.859375 -35.84375 28.378906 -33.835938 31.703125 -29.828125 L 26.453125 -24.0625 C 24.578125 -27.082031 21.960938 -28.59375 18.609375 -28.59375 C 16.128906 -28.59375 14.015625 -27.515625 12.265625 -25.359375 C 10.515625 -23.210938 9.640625 -20.617188 9.640625 -17.578125 C 9.640625 -14.585938 10.515625 -12.03125 12.265625 -9.90625 C 14.015625 -7.789062 16.128906 -6.734375 18.609375 -6.734375 C 20.648438 -6.734375 22.429688 -7.351562 23.953125 -8.59375 C 25.484375 -9.832031 26.25 -11.476562 26.25 -13.53125 L 18.140625 -13.53125 L 18.140625 -19.71875 Z M 34.390625 -19.71875 "/></g></g><g style="fill:#0cc0df;fill-opacity:1;"><g transform="translate(34.333062, 38.631154)"><path style="stroke:none" d="M 2.5625 0 L 2.5625 -36.703125 L 10.109375 -36.703125 L 10.109375 -19.59375 L 10.203125 -19.59375 C 12.160156 -21.550781 14.25 -22.53125 16.46875 -22.53125 C 17.550781 -22.53125 18.625 -22.382812 19.6875 -22.09375 C 20.757812 -21.8125 21.785156 -21.375 22.765625 -20.78125 C 23.742188 -20.1875 24.539062 -19.335938 25.15625 -18.234375 C 25.769531 -17.140625 26.078125 -15.867188 26.078125 -14.421875 L 26.078125 0 L 18.515625 0 L 18.515625 -12.375 C 18.515625 -13.507812 18.148438 -14.503906 17.421875 -15.359375 C 16.703125 -16.210938 15.757812 -16.640625 14.59375 -16.640625 C 13.457031 -16.640625 12.425781 -16.195312 11.5 -15.3125 C 10.570312 -14.4375 10.109375 -13.457031 10.109375 -12.375 L 10.109375 0 Z M 2.5625 0 "/></g></g><g style="fill:#0cc0df;fill-opacity:1;"><g transform="translate(60.618704, 38.631154)"><path style="stroke:none" d="M 3.28125 -34.09375 C 4.164062 -34.976562 5.21875 -35.421875 6.4375 -35.421875 C 7.664062 -35.421875 8.71875 -34.976562 9.59375 -34.09375 C 10.476562 -33.207031 10.921875 -32.15625 10.921875 -30.9375 C 10.921875 -29.71875 10.476562 -28.664062 9.59375 -27.78125 C 8.71875 -26.894531 7.664062 -26.453125 6.4375 -26.453125 C 5.21875 -26.453125 4.164062 -26.894531 3.28125 -27.78125 C 2.40625 -28.664062 1.96875 -29.71875 1.96875 -30.9375 C 1.96875 -32.15625 2.40625 -33.207031 3.28125 -34.09375 Z M 2.5625 -21.890625 L 2.5625 0 L 10.109375 0 L 10.109375 -21.890625 Z M 2.5625 -21.890625 "/></g></g><g style="fill:#0cc0df;fill-opacity:1;"><g transform="translate(71.585184, 38.631154)"><path style="stroke:none" d="M 2.5625 0 L 2.5625 -21.890625 L 10.109375 -21.890625 L 10.109375 -19.59375 L 10.203125 -19.59375 C 12.160156 -21.550781 14.25 -22.53125 16.46875 -22.53125 C 17.550781 -22.53125 18.625 -22.382812 19.6875 -22.09375 C 20.757812 -21.8125 21.785156 -21.375 22.765625 -20.78125 C 23.742188 -20.1875 24.539062 -19.335938 25.15625 -18.234375 C 25.769531 -17.140625 26.078125 -15.867188 26.078125 -14.421875 L 26.078125 0 L 18.515625 0 L 18.515625 -12.375 C 18.515625 -13.507812 18.148438 -14.503906 17.421875 -15.359375 C 16.703125 -16.210938 15.757812 -16.640625 14.59375 -16.640625 C 13.457031 -16.640625 12.425781 -16.195312 11.5 -15.3125 C 10.570312 -14.4375 10.109375 -13.457031 10.109375 -12.375 L 10.109375 0 Z M 2.5625 0 "/></g></g><g style="fill:#0cc0df;fill-opacity:1;"><g transform="translate(97.870826, 38.631154)"><path style="stroke:none" d="M 24.703125 -9.90625 L 8.828125 -9.90625 C 8.828125 -8.363281 9.320312 -7.222656 10.3125 -6.484375 C 11.3125 -5.742188 12.394531 -5.375 13.5625 -5.375 C 14.789062 -5.375 15.757812 -5.535156 16.46875 -5.859375 C 17.175781 -6.191406 17.988281 -6.84375 18.90625 -7.8125 L 24.359375 -5.078125 C 22.085938 -1.265625 18.304688 0.640625 13.015625 0.640625 C 9.710938 0.640625 6.878906 -0.488281 4.515625 -2.75 C 2.160156 -5.007812 0.984375 -7.734375 0.984375 -10.921875 C 0.984375 -14.109375 2.160156 -16.835938 4.515625 -19.109375 C 6.878906 -21.390625 9.710938 -22.53125 13.015625 -22.53125 C 16.484375 -22.53125 19.304688 -21.523438 21.484375 -19.515625 C 23.660156 -17.515625 24.75 -14.648438 24.75 -10.921875 C 24.75 -10.410156 24.734375 -10.070312 24.703125 -9.90625 Z M 9.046875 -14.078125 L 17.375 -14.078125 C 17.195312 -15.210938 16.742188 -16.085938 16.015625 -16.703125 C 15.296875 -17.316406 14.367188 -17.625 13.234375 -17.625 C 11.972656 -17.625 10.972656 -17.296875 10.234375 -16.640625 C 9.492188 -15.984375 9.097656 -15.128906 9.046875 -14.078125 Z M 9.046875 -14.078125 "/></g></g><g style="fill:#0cc0df;fill-opacity:1;"><g transform="translate(121.681508, 38.631154)"><path style="stroke:none" d="M 12.078125 -22.53125 C 13.328125 -22.53125 14.5625 -22.382812 15.78125 -22.09375 C 17.007812 -21.8125 17.921875 -21.53125 18.515625 -21.25 L 19.421875 -20.828125 L 16.9375 -15.875 C 15.226562 -16.78125 13.609375 -17.234375 12.078125 -17.234375 C 11.222656 -17.234375 10.617188 -17.140625 10.265625 -16.953125 C 9.910156 -16.773438 9.734375 -16.429688 9.734375 -15.921875 C 9.734375 -15.804688 9.742188 -15.691406 9.765625 -15.578125 C 9.796875 -15.460938 9.851562 -15.351562 9.9375 -15.25 C 10.03125 -15.15625 10.109375 -15.070312 10.171875 -15 C 10.242188 -14.925781 10.363281 -14.847656 10.53125 -14.765625 C 10.707031 -14.679688 10.84375 -14.617188 10.9375 -14.578125 C 11.039062 -14.535156 11.207031 -14.46875 11.4375 -14.375 C 11.664062 -14.289062 11.835938 -14.226562 11.953125 -14.1875 C 12.066406 -14.144531 12.253906 -14.082031 12.515625 -14 C 12.785156 -13.914062 12.992188 -13.859375 13.140625 -13.828125 C 14.023438 -13.566406 14.789062 -13.28125 15.4375 -12.96875 C 16.09375 -12.65625 16.785156 -12.226562 17.515625 -11.6875 C 18.242188 -11.144531 18.804688 -10.460938 19.203125 -9.640625 C 19.597656 -8.816406 19.796875 -7.878906 19.796875 -6.828125 C 19.796875 -1.847656 16.34375 0.640625 9.4375 0.640625 C 7.863281 0.640625 6.375 0.398438 4.96875 -0.078125 C 3.5625 -0.566406 2.546875 -1.050781 1.921875 -1.53125 L 0.984375 -2.296875 L 4.046875 -7.46875 C 4.273438 -7.269531 4.570312 -7.035156 4.9375 -6.765625 C 5.3125 -6.492188 5.984375 -6.125 6.953125 -5.65625 C 7.921875 -5.1875 8.757812 -4.953125 9.46875 -4.953125 C 11.03125 -4.953125 11.8125 -5.476562 11.8125 -6.53125 C 11.8125 -7.007812 11.613281 -7.382812 11.21875 -7.65625 C 10.820312 -7.925781 10.144531 -8.234375 9.1875 -8.578125 C 8.238281 -8.921875 7.492188 -9.234375 6.953125 -9.515625 C 5.585938 -10.222656 4.503906 -11.023438 3.703125 -11.921875 C 2.910156 -12.816406 2.515625 -14.003906 2.515625 -15.484375 C 2.515625 -17.703125 3.375 -19.429688 5.09375 -20.671875 C 6.820312 -21.910156 9.148438 -22.53125 12.078125 -22.53125 Z M 12.078125 -22.53125 "/></g></g></g></g><g clip-rule="nonzero" clip-path="url(#781118fb26)"><path style=" stroke:none;fill-rule:nonzero;fill:#5ab334;fill-opacity:1;" d="M 188.484375 170.550781 C 188.484375 170.550781 193.113281 161.863281 205.390625 161.925781 C 205.402344 161.925781 205.40625 161.925781 205.40625 161.925781 C 205.402344 161.925781 205.394531 161.925781 205.390625 161.925781 C 204.984375 161.929688 196.820312 162.128906 189.746094 171.429688 C 205.664062 181.738281 215.445312 157.886719 215.445312 157.886719 C 188.480469 151.734375 188.484375 170.550781 188.484375 170.550781 "/></g><g transform="matrix(1,0,0,1,157,201)"><g clip-path="url(#5a7c36e2df)"><g style="fill:#0cc0df;fill-opacity:1;"><g transform="translate(0.825751, 8.1939)"><path style="stroke:none" d="M 1.828125 -4.828125 L 1.828125 -3.078125 L 4.578125 -3.078125 L 4.578125 -2.1875 L 1.828125 -2.1875 L 1.828125 0 L 0.765625 0 L 0.765625 -5.703125 L 4.9375 -5.703125 L 4.9375 -4.828125 Z M 1.828125 -4.828125 "/></g></g><g style="fill:#0cc0df;fill-opacity:1;"><g transform="translate(10.59894, 8.1939)"><path style="stroke:none" d="M 3.4375 0.078125 C 2.851562 0.078125 2.328125 -0.046875 1.859375 -0.296875 C 1.390625 -0.546875 1.019531 -0.894531 0.75 -1.34375 C 0.488281 -1.789062 0.359375 -2.296875 0.359375 -2.859375 C 0.359375 -3.410156 0.488281 -3.910156 0.75 -4.359375 C 1.019531 -4.804688 1.390625 -5.15625 1.859375 -5.40625 C 2.328125 -5.664062 2.851562 -5.796875 3.4375 -5.796875 C 4.019531 -5.796875 4.539062 -5.664062 5 -5.40625 C 5.46875 -5.15625 5.835938 -4.804688 6.109375 -4.359375 C 6.378906 -3.910156 6.515625 -3.410156 6.515625 -2.859375 C 6.515625 -2.296875 6.378906 -1.789062 6.109375 -1.34375 C 5.835938 -0.894531 5.46875 -0.546875 5 -0.296875 C 4.539062 -0.046875 4.019531 0.078125 3.4375 0.078125 Z M 3.4375 -0.84375 C 3.8125 -0.84375 4.148438 -0.925781 4.453125 -1.09375 C 4.765625 -1.269531 5.003906 -1.507812 5.171875 -1.8125 C 5.347656 -2.125 5.4375 -2.472656 5.4375 -2.859375 C 5.4375 -3.234375 5.347656 -3.570312 5.171875 -3.875 C 5.003906 -4.1875 4.765625 -4.425781 4.453125 -4.59375 C 4.148438 -4.769531 3.8125 -4.859375 3.4375 -4.859375 C 3.050781 -4.859375 2.707031 -4.769531 2.40625 -4.59375 C 2.101562 -4.425781 1.863281 -4.1875 1.6875 -3.875 C 1.507812 -3.570312 1.421875 -3.234375 1.421875 -2.859375 C 1.421875 -2.472656 1.507812 -2.125 1.6875 -1.8125 C 1.863281 -1.507812 2.101562 -1.269531 2.40625 -1.09375 C 2.707031 -0.925781 3.050781 -0.84375 3.4375 -0.84375 Z M 3.4375 -0.84375 "/></g></g><g style="fill:#0cc0df;fill-opacity:1;"><g transform="translate(22.043108, 8.1939)"><path style="stroke:none" d="M 3.21875 0.078125 C 2.4375 0.078125 1.820312 -0.140625 1.375 -0.578125 C 0.9375 -1.023438 0.71875 -1.660156 0.71875 -2.484375 L 0.71875 -5.703125 L 1.78125 -5.703125 L 1.78125 -2.53125 C 1.78125 -1.40625 2.265625 -0.84375 3.234375 -0.84375 C 4.191406 -0.84375 4.671875 -1.40625 4.671875 -2.53125 L 4.671875 -5.703125 L 5.71875 -5.703125 L 5.71875 -2.484375 C 5.71875 -1.660156 5.5 -1.023438 5.0625 -0.578125 C 4.625 -0.140625 4.007812 0.078125 3.21875 0.078125 Z M 3.21875 0.078125 "/></g></g><g style="fill:#0cc0df;fill-opacity:1;"><g transform="translate(33.055268, 8.1939)"><path style="stroke:none" d="M 5.84375 -5.703125 L 5.84375 0 L 4.96875 0 L 1.8125 -3.859375 L 1.8125 0 L 0.765625 0 L 0.765625 -5.703125 L 1.640625 -5.703125 L 4.78125 -1.84375 L 4.78125 -5.703125 Z M 5.84375 -5.703125 "/></g></g><g style="fill:#0cc0df;fill-opacity:1;"><g transform="translate(44.238599, 8.1939)"><path style="stroke:none" d="M 0.765625 -5.703125 L 3.265625 -5.703125 C 3.867188 -5.703125 4.40625 -5.582031 4.875 -5.34375 C 5.351562 -5.113281 5.722656 -4.78125 5.984375 -4.34375 C 6.242188 -3.914062 6.375 -3.421875 6.375 -2.859375 C 6.375 -2.285156 6.242188 -1.78125 5.984375 -1.34375 C 5.722656 -0.914062 5.351562 -0.582031 4.875 -0.34375 C 4.40625 -0.113281 3.867188 0 3.265625 0 L 0.765625 0 Z M 3.21875 -0.890625 C 3.632812 -0.890625 4 -0.96875 4.3125 -1.125 C 4.632812 -1.289062 4.878906 -1.519531 5.046875 -1.8125 C 5.222656 -2.113281 5.3125 -2.460938 5.3125 -2.859375 C 5.3125 -3.242188 5.222656 -3.582031 5.046875 -3.875 C 4.878906 -4.175781 4.632812 -4.40625 4.3125 -4.5625 C 4 -4.726562 3.632812 -4.8125 3.21875 -4.8125 L 1.828125 -4.8125 L 1.828125 -0.890625 Z M 3.21875 -0.890625 "/></g></g><g style="fill:#0cc0df;fill-opacity:1;"><g transform="translate(55.552349, 8.1939)"><path style="stroke:none" d="M 4.46875 -1.328125 L 1.609375 -1.328125 L 1.046875 0 L -0.046875 0 L 2.53125 -5.703125 L 3.578125 -5.703125 L 6.15625 0 L 5.046875 0 Z M 4.125 -2.15625 L 3.046875 -4.65625 L 1.96875 -2.15625 Z M 4.125 -2.15625 "/></g></g><g style="fill:#0cc0df;fill-opacity:1;"><g transform="translate(66.238467, 8.1939)"><path style="stroke:none" d="M 1.921875 -4.8125 L 0.03125 -4.8125 L 0.03125 -5.703125 L 4.875 -5.703125 L 4.875 -4.8125 L 2.984375 -4.8125 L 2.984375 0 L 1.921875 0 Z M 1.921875 -4.8125 "/></g></g><g style="fill:#0cc0df;fill-opacity:1;"><g transform="translate(75.72636, 8.1939)"><path style="stroke:none" d="M 0.765625 -5.703125 L 1.828125 -5.703125 L 1.828125 0 L 0.765625 0 Z M 0.765625 -5.703125 "/></g></g><g style="fill:#0cc0df;fill-opacity:1;"><g transform="translate(82.907486, 8.1939)"><path style="stroke:none" d="M 3.4375 0.078125 C 2.851562 0.078125 2.328125 -0.046875 1.859375 -0.296875 C 1.390625 -0.546875 1.019531 -0.894531 0.75 -1.34375 C 0.488281 -1.789062 0.359375 -2.296875 0.359375 -2.859375 C 0.359375 -3.410156 0.488281 -3.910156 0.75 -4.359375 C 1.019531 -4.804688 1.390625 -5.15625 1.859375 -5.40625 C 2.328125 -5.664062 2.851562 -5.796875 3.4375 -5.796875 C 4.019531 -5.796875 4.539062 -5.664062 5 -5.40625 C 5.46875 -5.15625 5.835938 -4.804688 6.109375 -4.359375 C 6.378906 -3.910156 6.515625 -3.410156 6.515625 -2.859375 C 6.515625 -2.296875 6.378906 -1.789062 6.109375 -1.34375 C 5.835938 -0.894531 5.46875 -0.546875 5 -0.296875 C 4.539062 -0.046875 4.019531 0.078125 3.4375 0.078125 Z M 3.4375 -0.84375 C 3.8125 -0.84375 4.148438 -0.925781 4.453125 -1.09375 C 4.765625 -1.269531 5.003906 -1.507812 5.171875 -1.8125 C 5.347656 -2.125 5.4375 -2.472656 5.4375 -2.859375 C 5.4375 -3.234375 5.347656 -3.570312 5.171875 -3.875 C 5.003906 -4.1875 4.765625 -4.425781 4.453125 -4.59375 C 4.148438 -4.769531 3.8125 -4.859375 3.4375 -4.859375 C 3.050781 -4.859375 2.707031 -4.769531 2.40625 -4.59375 C 2.101562 -4.425781 1.863281 -4.1875 1.6875 -3.875 C 1.507812 -3.570312 1.421875 -3.234375 1.421875 -2.859375 C 1.421875 -2.472656 1.507812 -2.125 1.6875 -1.8125 C 1.863281 -1.507812 2.101562 -1.269531 2.40625 -1.09375 C 2.707031 -0.925781 3.050781 -0.84375 3.4375 -0.84375 Z M 3.4375 -0.84375 "/></g></g><g style="fill:#0cc0df;fill-opacity:1;"><g transform="translate(94.351654, 8.1939)"><path style="stroke:none" d="M 5.84375 -5.703125 L 5.84375 0 L 4.96875 0 L 1.8125 -3.859375 L 1.8125 0 L 0.765625 0 L 0.765625 -5.703125 L 1.640625 -5.703125 L 4.78125 -1.84375 L 4.78125 -5.703125 Z M 5.84375 -5.703125 "/></g></g></g></g></g></svg>