<svg xmlns="http://www.w3.org/2000/svg" xmlns:xlink="http://www.w3.org/1999/xlink" width="500" zoomAndPan="magnify" viewBox="0 0 375 374.999991" height="500" preserveAspectRatio="xMidYMid meet" version="1.2"><defs><clipPath id="7226eb4bc7"><path d="M 170 143 L 207 143 L 207 172 L 170 172 Z M 170 143 "/></clipPath><clipPath id="23587a52e9"><path d="M 165.566406 141.984375 L 205.453125 134.953125 L 213.003906 177.792969 L 173.121094 184.824219 Z M 165.566406 141.984375 "/></clipPath><clipPath id="24a94db91d"><path d="M 165.566406 141.984375 L 205.453125 134.953125 L 213.003906 177.792969 L 173.121094 184.824219 Z M 165.566406 141.984375 "/></clipPath><clipPath id="ff76533518"><path d="M 165.566406 141.984375 L 205.453125 134.953125 L 213.003906 177.792969 L 173.121094 184.824219 Z M 165.566406 141.984375 "/></clipPath></defs><g id="f170c9eff7"><g style="fill:#322f30;fill-opacity:0.4;"><g transform="translate(106.958391, 200.249987)"><path style="stroke:none" d="M 39.0625 -22.390625 L 39.0625 -13.71875 C 38.03125 -8.96875 35.769531 -5.367188 32.28125 -2.921875 C 28.789062 -0.484375 24.894531 0.734375 20.59375 0.734375 C 15.195312 0.734375 10.597656 -1.285156 6.796875 -5.328125 C 3.003906 -9.367188 1.109375 -14.25 1.109375 -19.96875 C 1.109375 -25.78125 2.96875 -30.691406 6.6875 -34.703125 C 10.40625 -38.710938 15.039062 -40.71875 20.59375 -40.71875 C 27.09375 -40.71875 32.234375 -38.4375 36.015625 -33.875 L 30.046875 -27.34375 C 27.921875 -30.757812 24.945312 -32.46875 21.125 -32.46875 C 18.320312 -32.46875 15.925781 -31.25 13.9375 -28.8125 C 11.945312 -26.375 10.953125 -23.425781 10.953125 -19.96875 C 10.953125 -16.570312 11.945312 -13.671875 13.9375 -11.265625 C 15.925781 -8.859375 18.320312 -7.65625 21.125 -7.65625 C 23.457031 -7.65625 25.488281 -8.359375 27.21875 -9.765625 C 28.945312 -11.171875 29.8125 -13.035156 29.8125 -15.359375 L 20.59375 -15.359375 L 20.59375 -22.390625 Z M 39.0625 -22.390625 "/></g></g><g style="fill:#322f30;fill-opacity:0.4;"><g transform="translate(144.95742, 200.249987)"><path style="stroke:none" d="M 2.90625 0 L 2.90625 -41.6875 L 11.484375 -41.6875 L 11.484375 -22.25 L 11.578125 -22.25 C 13.804688 -24.476562 16.179688 -25.59375 18.703125 -25.59375 C 19.929688 -25.59375 21.148438 -25.429688 22.359375 -25.109375 C 23.578125 -24.785156 24.742188 -24.285156 25.859375 -23.609375 C 26.972656 -22.929688 27.875 -21.96875 28.5625 -20.71875 C 29.257812 -19.476562 29.609375 -18.03125 29.609375 -16.375 L 29.609375 0 L 21.03125 0 L 21.03125 -14.0625 C 21.03125 -15.351562 20.617188 -16.484375 19.796875 -17.453125 C 18.972656 -18.421875 17.898438 -18.90625 16.578125 -18.90625 C 15.285156 -18.90625 14.113281 -18.398438 13.0625 -17.390625 C 12.007812 -16.390625 11.484375 -15.28125 11.484375 -14.0625 L 11.484375 0 Z M 2.90625 0 "/></g></g><g style="fill:#322f30;fill-opacity:0.4;"><g transform="translate(174.813703, 200.249987)"><path style="stroke:none" d="M 3.734375 -38.71875 C 4.734375 -39.726562 5.925781 -40.234375 7.3125 -40.234375 C 8.707031 -40.234375 9.90625 -39.726562 10.90625 -38.71875 C 11.90625 -37.71875 12.40625 -36.523438 12.40625 -35.140625 C 12.40625 -33.753906 11.90625 -32.554688 10.90625 -31.546875 C 9.90625 -30.546875 8.707031 -30.046875 7.3125 -30.046875 C 5.925781 -30.046875 4.734375 -30.546875 3.734375 -31.546875 C 2.734375 -32.554688 2.234375 -33.753906 2.234375 -35.140625 C 2.234375 -36.523438 2.734375 -37.71875 3.734375 -38.71875 Z M 2.90625 -24.859375 L 2.90625 0 L 11.484375 0 L 11.484375 -24.859375 Z M 2.90625 -24.859375 "/></g></g><g style="fill:#322f30;fill-opacity:0.4;"><g transform="translate(187.269692, 200.249987)"><path style="stroke:none" d="M 2.90625 0 L 2.90625 -24.859375 L 11.484375 -24.859375 L 11.484375 -22.25 L 11.578125 -22.25 C 13.804688 -24.476562 16.179688 -25.59375 18.703125 -25.59375 C 19.929688 -25.59375 21.148438 -25.429688 22.359375 -25.109375 C 23.578125 -24.785156 24.742188 -24.285156 25.859375 -23.609375 C 26.972656 -22.929688 27.875 -21.96875 28.5625 -20.71875 C 29.257812 -19.476562 29.609375 -18.03125 29.609375 -16.375 L 29.609375 0 L 21.03125 0 L 21.03125 -14.0625 C 21.03125 -15.351562 20.617188 -16.484375 19.796875 -17.453125 C 18.972656 -18.421875 17.898438 -18.90625 16.578125 -18.90625 C 15.285156 -18.90625 14.113281 -18.398438 13.0625 -17.390625 C 12.007812 -16.390625 11.484375 -15.28125 11.484375 -14.0625 L 11.484375 0 Z M 2.90625 0 "/></g></g><g style="fill:#322f30;fill-opacity:0.4;"><g transform="translate(217.125975, 200.249987)"><path style="stroke:none" d="M 28.0625 -11.25 L 10.03125 -11.25 C 10.03125 -9.5 10.59375 -8.203125 11.71875 -7.359375 C 12.851562 -6.523438 14.082031 -6.109375 15.40625 -6.109375 C 16.800781 -6.109375 17.898438 -6.289062 18.703125 -6.65625 C 19.515625 -7.03125 20.4375 -7.769531 21.46875 -8.875 L 27.671875 -5.765625 C 25.085938 -1.429688 20.789062 0.734375 14.78125 0.734375 C 11.03125 0.734375 7.8125 -0.550781 5.125 -3.125 C 2.445312 -5.695312 1.109375 -8.789062 1.109375 -12.40625 C 1.109375 -16.03125 2.445312 -19.132812 5.125 -21.71875 C 7.8125 -24.300781 11.03125 -25.59375 14.78125 -25.59375 C 18.726562 -25.59375 21.9375 -24.453125 24.40625 -22.171875 C 26.875 -19.890625 28.109375 -16.632812 28.109375 -12.40625 C 28.109375 -11.820312 28.09375 -11.4375 28.0625 -11.25 Z M 10.28125 -16 L 19.734375 -16 C 19.535156 -17.289062 19.023438 -18.28125 18.203125 -18.96875 C 17.378906 -19.664062 16.320312 -20.015625 15.03125 -20.015625 C 13.601562 -20.015625 12.46875 -19.640625 11.625 -18.890625 C 10.789062 -18.148438 10.34375 -17.1875 10.28125 -16 Z M 10.28125 -16 "/></g></g><g style="fill:#322f30;fill-opacity:0.4;"><g transform="translate(244.171064, 200.249987)"><path style="stroke:none" d="M 13.71875 -25.59375 C 15.132812 -25.59375 16.535156 -25.429688 17.921875 -25.109375 C 19.316406 -24.785156 20.351562 -24.460938 21.03125 -24.140625 L 22.046875 -23.65625 L 19.234375 -18.03125 C 17.296875 -19.0625 15.457031 -19.578125 13.71875 -19.578125 C 12.75 -19.578125 12.0625 -19.472656 11.65625 -19.265625 C 11.25 -19.054688 11.046875 -18.660156 11.046875 -18.078125 C 11.046875 -17.953125 11.0625 -17.820312 11.09375 -17.6875 C 11.125 -17.5625 11.1875 -17.441406 11.28125 -17.328125 C 11.382812 -17.210938 11.476562 -17.113281 11.5625 -17.03125 C 11.644531 -16.957031 11.78125 -16.867188 11.96875 -16.765625 C 12.164062 -16.671875 12.320312 -16.597656 12.4375 -16.546875 C 12.550781 -16.503906 12.734375 -16.429688 12.984375 -16.328125 C 13.242188 -16.234375 13.4375 -16.160156 13.5625 -16.109375 C 13.695312 -16.066406 13.914062 -15.992188 14.21875 -15.890625 C 14.53125 -15.796875 14.765625 -15.734375 14.921875 -15.703125 C 15.929688 -15.410156 16.804688 -15.085938 17.546875 -14.734375 C 18.285156 -14.378906 19.066406 -13.894531 19.890625 -13.28125 C 20.710938 -12.664062 21.347656 -11.890625 21.796875 -10.953125 C 22.253906 -10.015625 22.484375 -8.945312 22.484375 -7.75 C 22.484375 -2.09375 18.5625 0.734375 10.71875 0.734375 C 8.9375 0.734375 7.242188 0.457031 5.640625 -0.09375 C 4.046875 -0.644531 2.894531 -1.195312 2.1875 -1.75 L 1.109375 -2.625 L 4.609375 -8.484375 C 4.867188 -8.253906 5.207031 -7.984375 5.625 -7.671875 C 6.039062 -7.367188 6.796875 -6.953125 7.890625 -6.421875 C 8.992188 -5.890625 9.953125 -5.625 10.765625 -5.625 C 12.535156 -5.625 13.421875 -6.222656 13.421875 -7.421875 C 13.421875 -7.960938 13.191406 -8.382812 12.734375 -8.6875 C 12.285156 -9 11.519531 -9.347656 10.4375 -9.734375 C 9.363281 -10.128906 8.519531 -10.488281 7.90625 -10.8125 C 6.351562 -11.613281 5.125 -12.523438 4.21875 -13.546875 C 3.3125 -14.566406 2.859375 -15.914062 2.859375 -17.59375 C 2.859375 -20.113281 3.832031 -22.078125 5.78125 -23.484375 C 7.738281 -24.890625 10.382812 -25.59375 13.71875 -25.59375 Z M 13.71875 -25.59375 "/></g></g><g style="fill:#0cc0df;fill-opacity:1;"><g transform="translate(106.958391, 200.249987)"><path style="stroke:none" d="M 39.0625 -22.390625 L 39.0625 -13.71875 C 38.03125 -8.96875 35.769531 -5.367188 32.28125 -2.921875 C 28.789062 -0.484375 24.894531 0.734375 20.59375 0.734375 C 15.195312 0.734375 10.597656 -1.285156 6.796875 -5.328125 C 3.003906 -9.367188 1.109375 -14.25 1.109375 -19.96875 C 1.109375 -25.78125 2.96875 -30.691406 6.6875 -34.703125 C 10.40625 -38.710938 15.039062 -40.71875 20.59375 -40.71875 C 27.09375 -40.71875 32.234375 -38.4375 36.015625 -33.875 L 30.046875 -27.34375 C 27.921875 -30.757812 24.945312 -32.46875 21.125 -32.46875 C 18.320312 -32.46875 15.925781 -31.25 13.9375 -28.8125 C 11.945312 -26.375 10.953125 -23.425781 10.953125 -19.96875 C 10.953125 -16.570312 11.945312 -13.671875 13.9375 -11.265625 C 15.925781 -8.859375 18.320312 -7.65625 21.125 -7.65625 C 23.457031 -7.65625 25.488281 -8.359375 27.21875 -9.765625 C 28.945312 -11.171875 29.8125 -13.035156 29.8125 -15.359375 L 20.59375 -15.359375 L 20.59375 -22.390625 Z M 39.0625 -22.390625 "/></g></g><g style="fill:#0cc0df;fill-opacity:1;"><g transform="translate(144.95742, 200.249987)"><path style="stroke:none" d="M 2.90625 0 L 2.90625 -41.6875 L 11.484375 -41.6875 L 11.484375 -22.25 L 11.578125 -22.25 C 13.804688 -24.476562 16.179688 -25.59375 18.703125 -25.59375 C 19.929688 -25.59375 21.148438 -25.429688 22.359375 -25.109375 C 23.578125 -24.785156 24.742188 -24.285156 25.859375 -23.609375 C 26.972656 -22.929688 27.875 -21.96875 28.5625 -20.71875 C 29.257812 -19.476562 29.609375 -18.03125 29.609375 -16.375 L 29.609375 0 L 21.03125 0 L 21.03125 -14.0625 C 21.03125 -15.351562 20.617188 -16.484375 19.796875 -17.453125 C 18.972656 -18.421875 17.898438 -18.90625 16.578125 -18.90625 C 15.285156 -18.90625 14.113281 -18.398438 13.0625 -17.390625 C 12.007812 -16.390625 11.484375 -15.28125 11.484375 -14.0625 L 11.484375 0 Z M 2.90625 0 "/></g></g><g style="fill:#0cc0df;fill-opacity:1;"><g transform="translate(174.813703, 200.249987)"><path style="stroke:none" d="M 3.734375 -38.71875 C 4.734375 -39.726562 5.925781 -40.234375 7.3125 -40.234375 C 8.707031 -40.234375 9.90625 -39.726562 10.90625 -38.71875 C 11.90625 -37.71875 12.40625 -36.523438 12.40625 -35.140625 C 12.40625 -33.753906 11.90625 -32.554688 10.90625 -31.546875 C 9.90625 -30.546875 8.707031 -30.046875 7.3125 -30.046875 C 5.925781 -30.046875 4.734375 -30.546875 3.734375 -31.546875 C 2.734375 -32.554688 2.234375 -33.753906 2.234375 -35.140625 C 2.234375 -36.523438 2.734375 -37.71875 3.734375 -38.71875 Z M 2.90625 -24.859375 L 2.90625 0 L 11.484375 0 L 11.484375 -24.859375 Z M 2.90625 -24.859375 "/></g></g><g style="fill:#0cc0df;fill-opacity:1;"><g transform="translate(187.269692, 200.249987)"><path style="stroke:none" d="M 2.90625 0 L 2.90625 -24.859375 L 11.484375 -24.859375 L 11.484375 -22.25 L 11.578125 -22.25 C 13.804688 -24.476562 16.179688 -25.59375 18.703125 -25.59375 C 19.929688 -25.59375 21.148438 -25.429688 22.359375 -25.109375 C 23.578125 -24.785156 24.742188 -24.285156 25.859375 -23.609375 C 26.972656 -22.929688 27.875 -21.96875 28.5625 -20.71875 C 29.257812 -19.476562 29.609375 -18.03125 29.609375 -16.375 L 29.609375 0 L 21.03125 0 L 21.03125 -14.0625 C 21.03125 -15.351562 20.617188 -16.484375 19.796875 -17.453125 C 18.972656 -18.421875 17.898438 -18.90625 16.578125 -18.90625 C 15.285156 -18.90625 14.113281 -18.398438 13.0625 -17.390625 C 12.007812 -16.390625 11.484375 -15.28125 11.484375 -14.0625 L 11.484375 0 Z M 2.90625 0 "/></g></g><g style="fill:#0cc0df;fill-opacity:1;"><g transform="translate(217.125975, 200.249987)"><path style="stroke:none" d="M 28.0625 -11.25 L 10.03125 -11.25 C 10.03125 -9.5 10.59375 -8.203125 11.71875 -7.359375 C 12.851562 -6.523438 14.082031 -6.109375 15.40625 -6.109375 C 16.800781 -6.109375 17.898438 -6.289062 18.703125 -6.65625 C 19.515625 -7.03125 20.4375 -7.769531 21.46875 -8.875 L 27.671875 -5.765625 C 25.085938 -1.429688 20.789062 0.734375 14.78125 0.734375 C 11.03125 0.734375 7.8125 -0.550781 5.125 -3.125 C 2.445312 -5.695312 1.109375 -8.789062 1.109375 -12.40625 C 1.109375 -16.03125 2.445312 -19.132812 5.125 -21.71875 C 7.8125 -24.300781 11.03125 -25.59375 14.78125 -25.59375 C 18.726562 -25.59375 21.9375 -24.453125 24.40625 -22.171875 C 26.875 -19.890625 28.109375 -16.632812 28.109375 -12.40625 C 28.109375 -11.820312 28.09375 -11.4375 28.0625 -11.25 Z M 10.28125 -16 L 19.734375 -16 C 19.535156 -17.289062 19.023438 -18.28125 18.203125 -18.96875 C 17.378906 -19.664062 16.320312 -20.015625 15.03125 -20.015625 C 13.601562 -20.015625 12.46875 -19.640625 11.625 -18.890625 C 10.789062 -18.148438 10.34375 -17.1875 10.28125 -16 Z M 10.28125 -16 "/></g></g><g style="fill:#0cc0df;fill-opacity:1;"><g transform="translate(244.171064, 200.249987)"><path style="stroke:none" d="M 13.71875 -25.59375 C 15.132812 -25.59375 16.535156 -25.429688 17.921875 -25.109375 C 19.316406 -24.785156 20.351562 -24.460938 21.03125 -24.140625 L 22.046875 -23.65625 L 19.234375 -18.03125 C 17.296875 -19.0625 15.457031 -19.578125 13.71875 -19.578125 C 12.75 -19.578125 12.0625 -19.472656 11.65625 -19.265625 C 11.25 -19.054688 11.046875 -18.660156 11.046875 -18.078125 C 11.046875 -17.953125 11.0625 -17.820312 11.09375 -17.6875 C 11.125 -17.5625 11.1875 -17.441406 11.28125 -17.328125 C 11.382812 -17.210938 11.476562 -17.113281 11.5625 -17.03125 C 11.644531 -16.957031 11.78125 -16.867188 11.96875 -16.765625 C 12.164062 -16.671875 12.320312 -16.597656 12.4375 -16.546875 C 12.550781 -16.503906 12.734375 -16.429688 12.984375 -16.328125 C 13.242188 -16.234375 13.4375 -16.160156 13.5625 -16.109375 C 13.695312 -16.066406 13.914062 -15.992188 14.21875 -15.890625 C 14.53125 -15.796875 14.765625 -15.734375 14.921875 -15.703125 C 15.929688 -15.410156 16.804688 -15.085938 17.546875 -14.734375 C 18.285156 -14.378906 19.066406 -13.894531 19.890625 -13.28125 C 20.710938 -12.664062 21.347656 -11.890625 21.796875 -10.953125 C 22.253906 -10.015625 22.484375 -8.945312 22.484375 -7.75 C 22.484375 -2.09375 18.5625 0.734375 10.71875 0.734375 C 8.9375 0.734375 7.242188 0.457031 5.640625 -0.09375 C 4.046875 -0.644531 2.894531 -1.195312 2.1875 -1.75 L 1.109375 -2.625 L 4.609375 -8.484375 C 4.867188 -8.253906 5.207031 -7.984375 5.625 -7.671875 C 6.039062 -7.367188 6.796875 -6.953125 7.890625 -6.421875 C 8.992188 -5.890625 9.953125 -5.625 10.765625 -5.625 C 12.535156 -5.625 13.421875 -6.222656 13.421875 -7.421875 C 13.421875 -7.960938 13.191406 -8.382812 12.734375 -8.6875 C 12.285156 -9 11.519531 -9.347656 10.4375 -9.734375 C 9.363281 -10.128906 8.519531 -10.488281 7.90625 -10.8125 C 6.351562 -11.613281 5.125 -12.523438 4.21875 -13.546875 C 3.3125 -14.566406 2.859375 -15.914062 2.859375 -17.59375 C 2.859375 -20.113281 3.832031 -22.078125 5.78125 -23.484375 C 7.738281 -24.890625 10.382812 -25.59375 13.71875 -25.59375 Z M 13.71875 -25.59375 "/></g></g><g clip-rule="nonzero" clip-path="url(#7226eb4bc7)"><g clip-rule="nonzero" clip-path="url(#23587a52e9)"><g clip-rule="nonzero" clip-path="url(#24a94db91d)"><g clip-rule="nonzero" clip-path="url(#ff76533518)"><path style=" stroke:none;fill-rule:nonzero;fill:#5ab334;fill-opacity:1;" d="M 170.335938 168.847656 C 170.335938 168.847656 174.988281 155.234375 193.140625 152.128906 C 193.15625 152.125 193.164062 152.125 193.164062 152.125 C 193.15625 152.125 193.148438 152.128906 193.140625 152.128906 C 192.539062 152.238281 180.53125 154.648438 172.417969 169.773438 C 198.535156 180.34375 206.976562 143.738281 206.976562 143.738281 C 165.59375 141.980469 170.335938 168.847656 170.335938 168.847656 "/></g></g></g></g><g style="fill:#0cc0df;fill-opacity:1;"><g transform="translate(121.894223, 212.506728)"><path style="stroke:none" d="M 2.5 -6.578125 L 2.5 -4.21875 L 6.265625 -4.21875 L 6.265625 -2.984375 L 2.5 -2.984375 L 2.5 0 L 1.046875 0 L 1.046875 -7.796875 L 6.734375 -7.796875 L 6.734375 -6.578125 Z M 2.5 -6.578125 "/></g></g><g style="fill:#0cc0df;fill-opacity:1;"><g transform="translate(135.260223, 212.506728)"><path style="stroke:none" d="M 4.6875 0.109375 C 3.894531 0.109375 3.175781 -0.0625 2.53125 -0.40625 C 1.894531 -0.75 1.394531 -1.226562 1.03125 -1.84375 C 0.664062 -2.457031 0.484375 -3.144531 0.484375 -3.90625 C 0.484375 -4.65625 0.664062 -5.335938 1.03125 -5.953125 C 1.394531 -6.566406 1.894531 -7.046875 2.53125 -7.390625 C 3.175781 -7.734375 3.894531 -7.90625 4.6875 -7.90625 C 5.476562 -7.90625 6.191406 -7.734375 6.828125 -7.390625 C 7.472656 -7.046875 7.976562 -6.566406 8.34375 -5.953125 C 8.707031 -5.347656 8.890625 -4.664062 8.890625 -3.90625 C 8.890625 -3.132812 8.707031 -2.441406 8.34375 -1.828125 C 7.976562 -1.222656 7.472656 -0.75 6.828125 -0.40625 C 6.191406 -0.0625 5.476562 0.109375 4.6875 0.109375 Z M 4.6875 -1.15625 C 5.207031 -1.15625 5.675781 -1.269531 6.09375 -1.5 C 6.507812 -1.738281 6.835938 -2.066406 7.078125 -2.484375 C 7.316406 -2.910156 7.4375 -3.382812 7.4375 -3.90625 C 7.4375 -4.414062 7.316406 -4.878906 7.078125 -5.296875 C 6.835938 -5.722656 6.507812 -6.050781 6.09375 -6.28125 C 5.675781 -6.519531 5.207031 -6.640625 4.6875 -6.640625 C 4.164062 -6.640625 3.695312 -6.519531 3.28125 -6.28125 C 2.863281 -6.050781 2.535156 -5.722656 2.296875 -5.296875 C 2.066406 -4.878906 1.953125 -4.414062 1.953125 -3.90625 C 1.953125 -3.382812 2.066406 -2.910156 2.296875 -2.484375 C 2.535156 -2.066406 2.863281 -1.738281 3.28125 -1.5 C 3.695312 -1.269531 4.164062 -1.15625 4.6875 -1.15625 Z M 4.6875 -1.15625 "/></g></g><g style="fill:#0cc0df;fill-opacity:1;"><g transform="translate(150.910853, 212.506728)"><path style="stroke:none" d="M 4.40625 0.109375 C 3.320312 0.109375 2.476562 -0.191406 1.875 -0.796875 C 1.28125 -1.398438 0.984375 -2.265625 0.984375 -3.390625 L 0.984375 -7.796875 L 2.421875 -7.796875 L 2.421875 -3.453125 C 2.421875 -1.921875 3.082031 -1.15625 4.40625 -1.15625 C 5.726562 -1.15625 6.390625 -1.921875 6.390625 -3.453125 L 6.390625 -7.796875 L 7.8125 -7.796875 L 7.8125 -3.390625 C 7.8125 -2.265625 7.507812 -1.398438 6.90625 -0.796875 C 6.3125 -0.191406 5.476562 0.109375 4.40625 0.109375 Z M 4.40625 0.109375 "/></g></g><g style="fill:#0cc0df;fill-opacity:1;"><g transform="translate(165.970819, 212.506728)"><path style="stroke:none" d="M 7.984375 -7.796875 L 7.984375 0 L 6.78125 0 L 2.484375 -5.28125 L 2.484375 0 L 1.046875 0 L 1.046875 -7.796875 L 2.234375 -7.796875 L 6.546875 -2.515625 L 6.546875 -7.796875 Z M 7.984375 -7.796875 "/></g></g><g style="fill:#0cc0df;fill-opacity:1;"><g transform="translate(181.264829, 212.506728)"><path style="stroke:none" d="M 1.046875 -7.796875 L 4.453125 -7.796875 C 5.285156 -7.796875 6.023438 -7.632812 6.671875 -7.3125 C 7.316406 -6.988281 7.816406 -6.53125 8.171875 -5.9375 C 8.535156 -5.351562 8.71875 -4.675781 8.71875 -3.90625 C 8.71875 -3.125 8.535156 -2.4375 8.171875 -1.84375 C 7.816406 -1.257812 7.316406 -0.804688 6.671875 -0.484375 C 6.023438 -0.160156 5.285156 0 4.453125 0 L 1.046875 0 Z M 4.390625 -1.21875 C 4.960938 -1.21875 5.460938 -1.328125 5.890625 -1.546875 C 6.328125 -1.765625 6.660156 -2.078125 6.890625 -2.484375 C 7.128906 -2.890625 7.25 -3.363281 7.25 -3.90625 C 7.25 -4.4375 7.128906 -4.90625 6.890625 -5.3125 C 6.660156 -5.71875 6.328125 -6.03125 5.890625 -6.25 C 5.460938 -6.46875 4.960938 -6.578125 4.390625 -6.578125 L 2.5 -6.578125 L 2.5 -1.21875 Z M 4.390625 -1.21875 "/></g></g><g style="fill:#0cc0df;fill-opacity:1;"><g transform="translate(196.737149, 212.506728)"><path style="stroke:none" d="M 6.109375 -1.8125 L 2.203125 -1.8125 L 1.4375 0 L -0.0625 0 L 3.453125 -7.796875 L 4.875 -7.796875 L 8.40625 0 L 6.890625 0 Z M 5.625 -2.9375 L 4.15625 -6.34375 L 2.703125 -2.9375 Z M 5.625 -2.9375 "/></g></g><g style="fill:#0cc0df;fill-opacity:1;"><g transform="translate(211.351333, 212.506728)"><path style="stroke:none" d="M 2.625 -6.578125 L 0.046875 -6.578125 L 0.046875 -7.796875 L 6.65625 -7.796875 L 6.65625 -6.578125 L 4.078125 -6.578125 L 4.078125 0 L 2.625 0 Z M 2.625 -6.578125 "/></g></g><g style="fill:#0cc0df;fill-opacity:1;"><g transform="translate(224.327272, 212.506728)"><path style="stroke:none" d="M 1.046875 -7.796875 L 2.5 -7.796875 L 2.5 0 L 1.046875 0 Z M 1.046875 -7.796875 "/></g></g><g style="fill:#0cc0df;fill-opacity:1;"><g transform="translate(234.149289, 212.506728)"><path style="stroke:none" d="M 4.6875 0.109375 C 3.894531 0.109375 3.175781 -0.0625 2.53125 -0.40625 C 1.894531 -0.75 1.394531 -1.226562 1.03125 -1.84375 C 0.664062 -2.457031 0.484375 -3.144531 0.484375 -3.90625 C 0.484375 -4.65625 0.664062 -5.335938 1.03125 -5.953125 C 1.394531 -6.566406 1.894531 -7.046875 2.53125 -7.390625 C 3.175781 -7.734375 3.894531 -7.90625 4.6875 -7.90625 C 5.476562 -7.90625 6.191406 -7.734375 6.828125 -7.390625 C 7.472656 -7.046875 7.976562 -6.566406 8.34375 -5.953125 C 8.707031 -5.347656 8.890625 -4.664062 8.890625 -3.90625 C 8.890625 -3.132812 8.707031 -2.441406 8.34375 -1.828125 C 7.976562 -1.222656 7.472656 -0.75 6.828125 -0.40625 C 6.191406 -0.0625 5.476562 0.109375 4.6875 0.109375 Z M 4.6875 -1.15625 C 5.207031 -1.15625 5.675781 -1.269531 6.09375 -1.5 C 6.507812 -1.738281 6.835938 -2.066406 7.078125 -2.484375 C 7.316406 -2.910156 7.4375 -3.382812 7.4375 -3.90625 C 7.4375 -4.414062 7.316406 -4.878906 7.078125 -5.296875 C 6.835938 -5.722656 6.507812 -6.050781 6.09375 -6.28125 C 5.675781 -6.519531 5.207031 -6.640625 4.6875 -6.640625 C 4.164062 -6.640625 3.695312 -6.519531 3.28125 -6.28125 C 2.863281 -6.050781 2.535156 -5.722656 2.296875 -5.296875 C 2.066406 -4.878906 1.953125 -4.414062 1.953125 -3.90625 C 1.953125 -3.382812 2.066406 -2.910156 2.296875 -2.484375 C 2.535156 -2.066406 2.863281 -1.738281 3.28125 -1.5 C 3.695312 -1.269531 4.164062 -1.15625 4.6875 -1.15625 Z M 4.6875 -1.15625 "/></g></g><g style="fill:#0cc0df;fill-opacity:1;"><g transform="translate(249.799919, 212.506728)"><path style="stroke:none" d="M 7.984375 -7.796875 L 7.984375 0 L 6.78125 0 L 2.484375 -5.28125 L 2.484375 0 L 1.046875 0 L 1.046875 -7.796875 L 2.234375 -7.796875 L 6.546875 -2.515625 L 6.546875 -7.796875 Z M 7.984375 -7.796875 "/></g></g></g></svg>